HIERARCHY
ROOT hip
{
  OFFSET 0 0 0
  CHANNELS 6 Xposition Yposition Zposition Zrotation Yrotation Xrotation
  JOINT abdomen
  {
    OFFSET 0 20.6881 -0.73152
    CHANNELS 3 Zrotation Xrotation Yrotation
    JOINT chest
    {
      OFFSET 0 11.7043 -0.48768
      CHANNELS 3 Zrotation Xrotation Yrotation
      JOINT neck
      {
        OFFSET 0 22.1894 -2.19456
        CHANNELS 3 Zrotation Xrotation Yrotation
        JOINT head
        {
          OFFSET -0.24384 7.07133 1.2192
          CHANNELS 3 Zrotation Xrotation Yrotation
          JOINT leftEye
          {
            OFFSET 4.14528 8.04674 8.04672
            CHANNELS 3 Zrotation Xrotation Yrotation
            End Site
            {
              OFFSET 1 0 0
            }
          }
          JOINT rightEye
          {
            OFFSET -3.6576 8.04674 8.04672
            CHANNELS 3 Zrotation Xrotation Yrotation
            End Site
            {
              OFFSET 1 0 0
            }
          }
        }
      }
      JOINT rCollar
      {
        OFFSET -2.68224 19.2634 -4.8768
        CHANNELS 3 Zrotation Xrotation Yrotation
        JOINT rShldr
        {
          OFFSET -8.77824 -1.95073 1.46304
          CHANNELS 3 Zrotation Xrotation Yrotation
          JOINT rForeArm
          {
            OFFSET -28.1742 -1.7115 0.48768
            CHANNELS 3 Zrotation Xrotation Yrotation
            JOINT rHand
            {
              OFFSET -22.5879 0.773209 7.07136
              CHANNELS 3 Zrotation Xrotation Yrotation
              JOINT rThumb1
              {
                OFFSET -1.2192 -0.487915 3.41376
                CHANNELS 3 Zrotation Xrotation Yrotation
                JOINT rThumb2
                {
                  OFFSET -3.37035 -0.52449 3.41376
                  CHANNELS 3 Zrotation Xrotation Yrotation
                  End Site
                  {
                    OFFSET -1.78271 -1.18214 1.43049
                  }
                }
              }
              JOINT rIndex1
              {
                OFFSET -7.75947 0.938293 5.60832
                CHANNELS 3 Zrotation Xrotation Yrotation
                JOINT rIndex2
                {
                  OFFSET -2.54057 -0.884171 1.56538
                  CHANNELS 3 Zrotation Xrotation Yrotation
                  End Site
                  {
                    OFFSET -1.62519 -0.234802 1.16502
                  }
                }
              }
              JOINT rMid1
              {
                OFFSET -8.24714 1.18213 3.41376
                CHANNELS 3 Zrotation Xrotation Yrotation
                JOINT rMid2
                {
                  OFFSET -3.10165 -0.590103 1.0647
                  CHANNELS 3 Zrotation Xrotation Yrotation
                  End Site
                  {
                    OFFSET -2.48547 -0.328903 0.83742
                  }
                }
              }
              JOINT rRing1
              {
                OFFSET -8.82822 0.546677 1.51678
                CHANNELS 3 Zrotation Xrotation Yrotation
                JOINT rRing2
                {
                  OFFSET -2.60934 -0.819778 -0.0198488
                  CHANNELS 3 Zrotation Xrotation Yrotation
                  End Site
                  {
                    OFFSET -2.33842 -0.294052 0.168128
                  }
                }
              }
              JOINT rPinky1
              {
                OFFSET -8.27202 -0.0477905 -0.4584
                CHANNELS 3 Zrotation Xrotation Yrotation
                JOINT rPinky2
                {
                  OFFSET -1.82734 -0.647385 -0.700984
                  CHANNELS 3 Zrotation Xrotation Yrotation
                  End Site
                  {
                    OFFSET -1.69225 -0.51767 -0.607171
                  }
                }
              }
            }
          }
        }
      }
      JOINT lCollar
      {
        OFFSET 2.68224 19.2634 -4.8768
        CHANNELS 3 Zrotation Xrotation Yrotation
        JOINT lShldr
        {
          OFFSET 8.77824 -1.95073 1.46304
          CHANNELS 3 Zrotation Xrotation Yrotation
          JOINT lForeArm
          {
            OFFSET 28.1742 -1.7115 0.48768
            CHANNELS 3 Zrotation Xrotation Yrotation
            JOINT lHand
            {
              OFFSET 22.5879 0.773209 7.07136
              CHANNELS 3 Zrotation Xrotation Yrotation
              JOINT lThumb1
              {
                OFFSET 1.2192 -0.487915 3.41376
                CHANNELS 3 Zrotation Xrotation Yrotation
                JOINT lThumb2
                {
                  OFFSET 3.37035 -0.52449 3.41376
                  CHANNELS 3 Zrotation Xrotation Yrotation
                  End Site
                  {
                    OFFSET 1.78271 -1.18214 1.43049
                  }
                }
              }
              JOINT lIndex1
              {
                OFFSET 7.75947 0.938293 5.60832
                CHANNELS 3 Zrotation Xrotation Yrotation
                JOINT lIndex2
                {
                  OFFSET 2.54057 -0.884171 1.56538
                  CHANNELS 3 Zrotation Xrotation Yrotation
                  End Site
                  {
                    OFFSET 1.62519 -0.234802 1.16502
                  }
                }
              }
              JOINT lMid1
              {
                OFFSET 8.24714 1.18213 3.41376
                CHANNELS 3 Zrotation Xrotation Yrotation
                JOINT lMid2
                {
                  OFFSET 3.10165 -0.590103 1.0647
                  CHANNELS 3 Zrotation Xrotation Yrotation
                  End Site
                  {
                    OFFSET 2.48547 -0.328903 0.83742
                  }
                }
              }
              JOINT lRing1
              {
                OFFSET 8.82822 0.546677 1.51678
                CHANNELS 3 Zrotation Xrotation Yrotation
                JOINT lRing2
                {
                  OFFSET 2.60934 -0.819778 -0.0198488
                  CHANNELS 3 Zrotation Xrotation Yrotation
                  End Site
                  {
                    OFFSET 2.33842 -0.294052 0.168128
                  }
                }
              }
              JOINT lPinky1
              {
                OFFSET 8.27202 -0.0477905 -0.4584
                CHANNELS 3 Zrotation Xrotation Yrotation
                JOINT lPinky2
                {
                  OFFSET 1.82734 -0.647385 -0.700984
                  CHANNELS 3 Zrotation Xrotation Yrotation
                  End Site
                  {
                    OFFSET 1.69225 -0.51767 -0.607171
                  }
                }
              }
            }
          }
        }
      }
    }
  }
  JOINT rButtock
  {
    OFFSET -8.77824 4.35084 1.2192
    CHANNELS 3 Zrotation Xrotation Yrotation
    JOINT rThigh
    {
      OFFSET 0 -1.70687 -2.19456
      CHANNELS 3 Zrotation Xrotation Yrotation
      JOINT rShin
      {
        OFFSET 0 -36.8199 0.73152
        CHANNELS 3 Zrotation Xrotation Yrotation
        JOINT rFoot
        {
          OFFSET 0.73152 -45.1104 -5.12064
          CHANNELS 3 Zrotation Xrotation Yrotation
          End Site
          {
            OFFSET -1.1221 -3.69964 12.103
          }
        }
      }
    }
  }
  JOINT lButtock
  {
    OFFSET 8.77824 4.35084 1.2192
    CHANNELS 3 Zrotation Xrotation Yrotation
    JOINT lThigh
    {
      OFFSET 0 -1.70687 -2.19456
      CHANNELS 3 Zrotation Xrotation Yrotation
      JOINT lShin
      {
        OFFSET 0 -36.8199 0.73152
        CHANNELS 3 Zrotation Xrotation Yrotation
        JOINT lFoot
        {
          OFFSET -0.73152 -45.1104 -5.12064
          CHANNELS 3 Zrotation Xrotation Yrotation
          End Site
          {
            OFFSET 1.1221 -3.69964 12.103
          }
        }
      }
    }
  }
}
MOTION
Frames:	4
Frame Time:	0.03333
15.842559933662415 59.270405769348145 26.189738232642412 -2.7691526412963867 -21.398834228515625 5.8632659912109375 -1.3893550634384155 16.272998809814453 10.67795181274414 -1.565234899520874 -11.246662139892578 2.238954782485962 -4.614405155181885 14.342168807983398 -1.3746808767318726 6.641075611114502 -34.93718338012695 -1.772908329963684 0.23374725878238678 -0.006707475986331701 0.7098885774612427 0.24930818378925323 -0.15511275827884674 0.17933320999145508 0.15862378478050232 0.2822764813899994 0.6920627355575562 -8.386143684387207 28.733606338500977 102.18218994140625 -23.462148666381836 -49.84279251098633 104.42030334472656 -4.5215888023376465 -47.37952423095703 -9.606733322143555 -0.5706151723861694 -0.02630326896905899 0.211869016289711 0.0431850291788578 0.03943410888314247 0.4239771366119385 -0.22415798902511597 0.15757720172405243 0.24048267304897308 7.279446125030518 5.272205352783203 0.5119380950927734 0.11975490301847458 -0.514874279499054 -0.7376449704170227 3.2562317848205566 0.5519235730171204 0.230973482131958 0.4400924742221832 0.20026636123657227 -0.06322235614061356 10.24251651763916 0.2253531962633133 0.4131303131580353 -0.41778191924095154 -0.43433770537376404 -0.41622334718704224 1.9942505359649658 -0.21323946118354797 -0.4585042893886566 -0.2529761791229248 0.09435801953077316 -0.09361951053142548 -42.30088424682617 45.47409439086914 -57.87527084350586 24.280311584472656 -20.25615692138672 -52.05780029296875 0.033804018050432205 -4.101698875427246 0.9668809771537781 -0.05484926328063011 -0.1365317404270172 -0.1294323205947876 0.2791326344013214 -0.38175615668296814 0.2111598402261734 -0.2909609079360962 0.18794585764408112 -0.10028236359357834 -7.095404624938965 5.770515441894531 -0.4003288745880127 -0.18216216564178467 -0.05845695734024048 0.018149111419916153 -3.2953028678894043 1.0388108491897583 0.2827486991882324 -0.42337384819984436 -0.3771239221096039 0.410258024930954 -9.985742568969727 0.5337893962860107 -0.22656667232513428 -0.1491146683692932 0.022776760160923004 -0.3241019546985626 -2.259948492050171 -0.34118175506591797 0.5297281742095947 0.3311820328235626 0.46353667974472046 -0.1012788638472557 -16.552839279174805 -38.66978073120117 -16.73934555053711 -163.56484985351562 84.84850311279297 164.53880310058594 -1.283189058303833 -2.028040885925293 -18.371625900268555 0.41744014620780945 -0.05540614202618599 -0.1611015945672989 27.049968719482422 -54.45425796508789 39.829872131347656 2.032564401626587 74.7849349975586 -2.767362117767334 7.295196533203125 -8.236124992370605 23.599023818969727
16.237207874655724 58.53865146636963 28.796683717519045 -1.9485557079315186 -17.96436309814453 4.284101963043213 -1.8200602531433105 16.9720401763916 10.065903663635254 -1.7777280807495117 -11.335962295532227 1.836908221244812 -4.3906354904174805 14.541898727416992 -2.1520845890045166 6.33599328994751 -34.36858367919922 -2.918201208114624 0.17312321066856384 0.10543270409107208 0.6102342009544373 0.0984283834695816 -0.14465591311454773 0.19020110368728638 0.2682293653488159 0.31421902775764465 0.8274588584899902 -9.462655067443848 22.03087043762207 106.09730529785156 -22.948652267456055 -50.45808792114258 106.19266510009766 -4.438000202178955 -46.756046295166016 -9.723679542541504 -0.7312118411064148 0.096132293343544 0.1347724199295044 0.17887966334819794 0.19778892397880554 0.3645574450492859 -0.5269389748573303 0.252162367105484 0.268563449382782 7.303172588348389 5.164051532745361 0.6044704914093018 0.1892293393611908 -0.6147211194038391 -0.8797992467880249 3.198157787322998 0.511617124080658 0.014915774576365948 0.3182937502861023 0.19640958309173584 -0.023296624422073364 10.292534828186035 0.2395246922969818 0.3257043957710266 -0.49031054973602295 -0.21837587654590607 -0.19808432459831238 1.9910873174667358 -0.2775181531906128 -0.27560269832611084 -0.3414444327354431 -0.0007355270790867507 0.08749978244304657 -36.11497497558594 47.49361038208008 -65.42991638183594 23.48564910888672 -18.641666412353516 -49.37399673461914 0.19761136174201965 -6.404658317565918 1.2210254669189453 -0.14000406861305237 -0.18647949397563934 -0.16276904940605164 0.49939852952957153 -0.19095198810100555 0.29799047112464905 -0.2630056142807007 -0.11661233007907867 -0.15137720108032227 -6.9807562828063965 5.852492809295654 -0.4468090832233429 -0.22576257586479187 -0.24528582394123077 0.08470487594604492 -3.1925415992736816 1.033636212348938 0.24063758552074432 -0.44313502311706543 -0.3666418492794037 0.3136470913887024 -9.811112403869629 0.4821448028087616 -0.17430053651332855 -0.10998551547527313 0.06828106194734573 -0.40207716822624207 -2.187854766845703 -0.3032684624195099 0.38154855370521545 0.37034744024276733 0.5183595418930054 0.06032286584377289 -16.73296356201172 -44.53551483154297 -17.93485450744629 -169.63694763183594 80.32256317138672 170.32156372070312 -2.4239907264709473 -3.950517177581787 -17.59625244140625 0.18926270306110382 0.04954828321933746 -0.05533349886536598 22.362550735473633 -52.85027313232422 36.293418884277344 2.196657419204712 75.5356216430664 -3.179027557373047 7.215613842010498 -9.362814903259277 22.700809478759766
16.545620933175087 57.77257680892944 31.326075550168753 -1.4220141172409058 -14.535567283630371 3.174403667449951 -2.0773401260375977 17.296438217163086 9.489645004272461 -1.9284110069274902 -11.48735237121582 1.5481125116348267 -4.342883110046387 14.64867877960205 -2.5485692024230957 6.0475754737854 -33.52558898925781 -3.555880308151245 0.19635117053985596 0.19203227758407593 0.41846656799316406 -0.009543356485664845 -0.11131789535284042 0.14669162034988403 0.327014684677124 0.37679147720336914 0.7859344482421875 -10.224720001220703 17.39400291442871 107.67362976074219 -23.186988830566406 -50.22801208496094 105.8955078125 -4.357247829437256 -46.65956115722656 -9.740419387817383 -0.7019249200820923 0.1259864717721939 0.06008688360452652 0.17806769907474518 0.25032469630241394 0.2307838648557663 -0.6738093495368958 0.24743324518203735 0.25512397289276123 7.357900142669678 5.154299259185791 0.6325843334197998 0.17719557881355286 -0.7129842042922974 -0.9155229926109314 3.1533565521240234 0.44161465764045715 -0.14756684005260468 0.2438003569841385 0.20749548077583313 0.025503134354948997 10.322644233703613 0.19517432153224945 0.1809258759021759 -0.5625104308128357 -0.06773177534341812 -0.07364652305841446 1.9379984140396118 -0.40640488266944885 -0.18242496252059937 -0.46556946635246277 -0.09224732220172882 0.21116624772548676 -30.55063819885254 47.890037536621094 -71.85973358154297 22.266267776489258 -16.714614868164062 -45.98127746582031 0.3702363073825836 -6.833745002746582 1.3264498710632324 -0.1950005441904068 -0.19913539290428162 -0.1559278815984726 0.7130569815635681 -0.004857008811086416 0.4012793302536011 -0.1571783870458603 -0.283953458070755 -0.17852887511253357 -6.979003429412842 5.853034973144531 -0.45524606108665466 -0.16581010818481445 -0.34364834427833557 0.1730743944644928 -2.996053695678711 1.074951410293579 0.224373921751976 -0.3754929006099701 -0.3302842974662781 0.18451857566833496 -9.655963897705078 0.507133960723877 -0.07225236296653748 -0.05524779483675957 0.1211521252989769 -0.4978910982608795 -2.1150434017181396 -0.346643328666687 0.26691457629203796 0.37489503622055054 0.4679563045501709 0.15531519055366516 -16.850711822509766 -49.202388763427734 -19.477304458618164 -170.6365509033203 78.89444732666016 171.1226348876953 -3.2567672729492188 -5.943302154541016 -16.96541976928711 -0.03784840553998947 0.07910943776369095 -0.05376206710934639 18.971220016479492 -51.296478271484375 33.20386505126953 2.482642889022827 75.49578857421875 -3.7034547328948975 7.1562652587890625 -10.685423851013184 21.774282455444336
16.698813810944557 57.55915641784668 33.78383880481124 -1.0675530433654785 -11.533763885498047 2.2155821323394775 -2.3883063793182373 17.52410125732422 8.806464195251465 -1.768951654434204 -11.692668914794922 1.389527440071106 -4.6547160148620605 14.705342292785645 -2.882812023162842 5.9970855712890625 -32.71497344970703 -4.333067417144775 0.17076215147972107 0.23252198100090027 0.1787239909172058 0.014223108068108559 -0.0845862478017807 0.05635989084839821 0.3117130994796753 0.4382022023200989 0.5949863195419312 -10.216398239135742 13.932217597961426 107.36351776123047 -24.046009063720703 -49.52189254760742 104.12799072265625 -4.178927898406982 -46.74660873413086 -9.491063117980957 -0.5194754004478455 0.031149275600910187 0.015633944422006607 0.047365702688694 0.20433755218982697 0.09218134731054306 -0.6762580871582031 0.2052280157804489 0.16857098042964935 7.424770355224609 5.280716419219971 0.6550844311714172 0.023743629455566406 -0.6967030167579651 -0.8281427025794983 3.078019618988037 0.3893004059791565 -0.21188358962535858 0.27629193663597107 0.21393153071403503 0.1643061339855194 10.347294807434082 0.14381858706474304 0.0866447165608406 -0.5707157850265503 0.047071684151887894 -0.07126489281654358 1.8849576711654663 -0.5564489364624023 -0.25407472252845764 -0.5443224310874939 -0.10792922228574753 0.2797844111919403 -24.020931243896484 48.16777420043945 -78.78225708007812 21.142122268676758 -15.080824851989746 -42.89586639404297 0.4462977647781372 -6.252313137054443 1.383560299873352 -0.14380526542663574 -0.13726726174354553 -0.11286744475364685 0.8103280663490295 0.11694390326738358 0.44221892952919006 0.018895629793405533 -0.2417421191930771 -0.10760845243930817 -7.101779937744141 5.75529146194458 -0.4087945222854614 -0.031926948577165604 -0.28293749690055847 0.2832159101963043 -2.7770962715148926 1.149250864982605 0.1706685721874237 -0.2532154619693756 -0.34241563081741333 0.051897380501031876 -9.588912010192871 0.5133093595504761 0.08727321773767471 0.006493912544101477 0.11238351464271545 -0.5865843892097473 -2.0519347190856934 -0.4337213635444641 0.1884099543094635 0.3423045873641968 0.2789960503578186 0.1421249657869339 -17.389404296875 -53.56533432006836 -21.671979904174805 -170.43565368652344 79.50997161865234 170.78424072265625 -3.5104663372039795 -7.236344337463379 -15.699029922485352 -0.19736772775650024 0.059396516531705856 -0.08572570979595184 15.744283676147461 -49.77859115600586 29.92418098449707 2.725034713745117 75.24948120117188 -4.131219387054443 7.3721394538879395 -12.502591133117676 21.153669357299805
